<svg xmlns="http://www.w3.org/2000/svg" viewBox="0 0 160 160" fill="currentColor" role="img" aria-label="MP logo">
<path transform="matrix(1,0,0,-1,97.3529,14.088104)" d="M0 0C-3.154-2.045-5.985-4.67-8.856-7.14-14.984-12.611-21.992-17.046-30.175-17.354-31.387-17.401-32.656-17.341-33.763-17.166-34.934-16.959-37.972-16.37-36.355-15.261-35.152-14.626-33.258-14.246-31.806-13.9-17.479-11.073-8.912 2.093 4.151 7.779 8.611 9.668 13.3 10.464 18.405 10.385 43.595 10.283 52.736-15.195 49.944-39.471 48.845-52.004 43.57-63.415 41.858-75.866 39.984-91.021 41.294-106.66 35.619-121.112 33.297-127.107 29.591-133.645 24.384-136.847 19.205-140.094 13.821-138.369 10.31-133.573 2.68-123.026 2.637-108.476-4.864-97.877-14.507-84.701-21.337-95.884-24.987-108.114-28.307-118.323-28.594-135.264-37.378-140.927-40.07-142.529-43.405-142.539-46.299-141.487-58.368-136.749-65.149-117.869-67.748-105.626-69.708-96.391-70.518-86.922-72.954-77.799-75.41-68.307-80.096-59.613-82.54-50.086-84.208-43.663-85.086-37.018-85.13-30.352-85.32-13.408-78.96 3.328-61.323 6.773-49.763 9.402-39.394 4.623-28.734 1.577-27.06 1.129-25.126 .75-23.523 .229-22.725-.04-22.166-.334-21.92-.654-20.944-2.276-25.653-3.208-27.319-3.23-30.949-3.377-34.464-2.158-37.902-1.051-69.27 11.349-84.716-10.485-78.68-42.964-76.847-53.238-72.334-62.17-69.179-71.836-64.219-86.72-64.431-102.729-58.792-117.445-56.243-124.178-50.216-135.613-43.088-136.589-37.589-136.581-35.516-129.506-34.298-124.931-31.471-114.338-29.966-100.535-23.223-91.62-17.409-84.386-8.786-84.867-3.021-91.945 3.548-99.75 6.37-109.815 9.322-119.496 10.526-123.19 11.75-127.178 14.24-130.135 19.425-136.275 25.32-129.925 28.278-124.735 35.526-112.015 35.079-96.785 36.084-82.507 36.428-77.235 36.984-72.197 38.074-67.063 40.951-53.294 46.345-41.227 45.385-26.717 44.974-19.218 43.258-11.418 39.147-5.176 38.143-3.557 37.066-2.005 35.732-.727 33.938 1.128 31.072 2.617 28.486 3.5 24.296 5.027 20.994 5.886 16.73 5.442 10.877 4.969 4.98 3.292 .056 .037"/>
<path transform="matrix(1,0,0,-1,115.8078,69.9681)" d="M0 0 3.396-53.14 .844-48.926-2.695-41.331-5.436 4.928 7.605 5.672C12.223 6.155 16.772 9.598 17.917 14.347 18.599 19 17.913 21.902 15.465 26.045 10.67 32.117 6.076 30.488-.511 30.268-8.95 29.986-17.395 29.605-25.838 29.043L-24.752 12.717-10.869 13.374-10.529 8.092-24.424 7.352-23.1-18.655-28.195-19.005-31.597 34.135C-21.01 34.408-10.433 35.147 .168 35.547 5.604 35.752 8.997 36.715 14.159 33.843 24.604 28.033 26.63 12.136 17.152 4.23 11.99-.076 6.248 .446 0 0"/>
<path transform="matrix(1,0,0,-1,76.3979,36.5363)" d="M0 0 3.079-55.45C2.893-57.024-.974-58.917-1.363-60.88L-4.418-10.204-5.46-10.426-17.674-31.319-33.293-11.614-26.407-73.279C-24.974-82.712-23.144-92.051-19.03-100.65-25.807-94.179-28.476-83.758-30.472-74.674-32.304-66.343-33.541-57.532-34.607-49.043-36.57-33.406-37.726-17.653-39.387-1.979-39.137-1.075-34.797-1.222-34.121-1.734L-18.517-22.164-4.926 0Z"/>
</svg>
